<svg id="svg3871" xmlns="http://www.w3.org/2000/svg" viewBox="0 0 350 175"><defs><style>.cls-1{fill:#1c4196;}.cls-2{fill:#fff;}.cls-3{fill:#fffffe;}.cls-4{isolation:isolate;}</style></defs><title>no font required</title><g id="layer6"><path id="rect4609" class="cls-1" d="M0,0H350V175H0Z"/></g><g id="layer1"><g id="g51"><g id="g3891"><polygon id="rect3883" class="cls-2" points="61.79 88.5 117.59 88.5 61.8 165 6 165 61.79 88.5"/><polygon id="rect3887" class="cls-2" points="61.79 88.5 117.59 88.5 61.8 12 6 12 61.79 88.5"/></g><g id="g3897"><polygon id="rect3893" class="cls-2" points="136.79 88.5 192.59 88.5 136.8 165 81 165 136.79 88.5"/><polygon id="rect3895" class="cls-2" points="136.79 88.5 192.59 88.5 136.8 12 81 12 136.79 88.5"/></g><g id="g3903"><polygon id="rect3899" class="cls-2" points="211.79 88.5 267.59 88.5 211.8 165 156 165 211.79 88.5"/><polygon id="rect3901" class="cls-2" points="211.79 88.5 267.59 88.5 211.8 12 156 12 211.79 88.5"/></g><g id="g3909"><polygon id="rect3905" class="cls-2" points="286.79 88.5 342.59 88.5 286.8 165 231 165 286.79 88.5"/><polygon id="rect3907" class="cls-2" points="286.79 88.5 342.59 88.5 286.8 12 231 12 286.79 88.5"/></g></g></g><g id="layer2"><g id="g865"><g id="g44"><rect id="rect4617" class="cls-3" x="280.37" y="80.75" width="13.88" height="17.88"/><path id="text74" class="cls-1" d="M94.59,34.23A26.6,26.6,0,0,0,79,39.38,29.75,29.75,0,0,0,68.73,53.14l-7.42,20.4A8.59,8.59,0,0,0,61.68,81a7.32,7.32,0,0,0,6.37,3.1H79.88l-36,38.66A15.66,15.66,0,0,0,40.54,128l-3.1,8.49a8.58,8.58,0,0,0,.38,7.5,7.31,7.31,0,0,0,6.36,3.1H88.66A15.39,15.39,0,0,0,97.15,144a14.84,14.84,0,0,0,9.55,3.09h29a26.42,26.42,0,0,0,15.65-5.25l.14-.13c0,.06,0,.1.06.15,2.47,3.92,7.27,5.23,11.86,5.23H191a26.44,26.44,0,0,0,15.6-5.22c2.43,3.87,7.16,5.22,11.71,5.22h28.94a26.42,26.42,0,0,0,15.65-5.25A29.7,29.7,0,0,0,273,128.14l9.71-26.66a18,18,0,0,0,.24-12.57,31.92,31.92,0,0,0,8.48-12L300,53.26c1.66-4.54,2.35-9.74,0-13.69s-7.19-5.34-11.79-5.34H259.65A26.55,26.55,0,0,0,244,39.49l-.08.07s0-.06,0-.09c-2.47-3.93-7.28-5.24-11.9-5.24h-28a26.33,26.33,0,0,0-15.57,5.28c-2.4-3.91-7.16-5.28-11.73-5.28H148.08a26.57,26.57,0,0,0-15,4.84c-2.56-3.6-7.15-4.84-11.59-4.84ZM106.7,97.1a27.11,27.11,0,0,0-2.13,4.38l-4.52,12.44H91Zm85.64,9.4-1.15,1.08-.57-.89Z"/><g id="text3913" class="cls-4"><g class="cls-4"><path class="cls-2" d="M116.51,70.9q-1.58,4.34-6.48,9.61l-41.21,44H96.88l-4.37,12H48L51.13,128l50.93-54.61,6.17-16.94H91.53L85.32,73.53H71.9l7.42-20.39q3-8.31,11.41-8.32h26.9q8.37,0,5.35,8.32Z"/><path class="cls-2" d="M150.76,128.14q-3.06,8.38-11.31,8.38H110.5q-8.15,0-5.09-8.38l9.7-26.66a14.82,14.82,0,0,1,6.23-7.79L131.19,89,125,84.43q-2.55-2.81-.83-7.56l8.6-23.61q3.06-8.43,11.39-8.44H172.7q8.15,0,5.08,8.44l-8.6,23.61a14.36,14.36,0,0,1-6.26,7.56L153.4,89c2.13,1.57,4.27,3.13,6.44,4.69q2.47,2.7.62,7.79ZM138.26,125l9.25-25.43-7.15-5.16-11,5.16L120.15,125Zm16.85-46.64,8-22H145.36l-8,22,6.93,5.27Z"/><path class="cls-2" d="M206.13,128.14q-3.06,8.38-11.31,8.38h-27.6q-8.33,0-5.27-8.38L169,108.69H182.5l-5.84,16.06h17.11l10-27.6H181q-8.15,0-5.14-8.26l13-35.63q3.08-8.43,11.22-8.44h28q8.38,0,5.31,8.44ZM208,85.55,218.57,56.6H201.05L190.52,85.55Z"/><path class="cls-2" d="M262.38,128.14q-3.06,8.38-11.31,8.38H222.12q-8.15,0-5.09-8.38l9.7-26.66A14.82,14.82,0,0,1,233,93.69L242.81,89l-6.18-4.57q-2.55-2.81-.83-7.56l8.6-23.61q3.07-8.43,11.39-8.44h28.53q8.15,0,5.08,8.44l-8.6,23.61a14.36,14.36,0,0,1-6.26,7.56L265,89c2.13,1.57,4.27,3.13,6.44,4.69q2.48,2.7.62,7.79ZM249.88,125l9.25-25.43L252,94.39l-11,5.16L231.77,125Zm16.86-46.64,8-22H257l-8,22,6.93,5.27Z"/></g></g><rect id="rect4620" class="cls-1" x="87.75" y="99.75" width="23.38" height="13.12" transform="translate(-46.08 109.98) rotate(-48.36)"/></g><rect id="rect46" class="cls-1" x="184.55" y="98.99" width="14.01" height="10.83"/></g></g></svg>